<?xml version="1.0" standalone="no"?>
<!DOCTYPE svg PUBLIC "-//W3C//DTD SVG 20010904//EN"
 "http://www.w3.org/TR/2001/REC-SVG-20010904/DTD/svg10.dtd">
<svg version="1.0" xmlns="http://www.w3.org/2000/svg"
 width="2662.000000pt" height="1432.000000pt" viewBox="0 0 2662.000000 1432.000000"
 preserveAspectRatio="xMidYMid meet">

<g transform="translate(0.000000,1432.000000) scale(0.100000,-0.100000)"
fill="#000000" stroke="none">
<path d="M24753 12710 c-70 -16 -183 -106 -424 -337 l-98 -95 -448 56 c-246
31 -505 61 -575 67 l-127 12 -47 -34 c-26 -19 -47 -38 -46 -43 1 -4 39 -21 84
-36 339 -115 828 -319 828 -347 0 -2 -68 -77 -151 -166 -84 -89 -188 -208
-232 -264 -45 -57 -88 -103 -96 -103 -9 0 -111 12 -228 26 l-212 26 -48 -23
c-26 -13 -49 -29 -50 -35 -2 -6 20 -21 49 -34 84 -36 363 -162 367 -166 2 -2
-8 -22 -23 -44 -30 -46 -31 -53 -12 -69 12 -10 23 -7 55 13 22 14 44 26 48 26
7 0 93 -178 166 -343 17 -37 35 -66 41 -64 6 1 22 24 35 51 l24 47 -27 197
c-15 108 -29 209 -32 223 -4 24 6 36 100 113 57 47 175 153 261 236 85 82 160
150 164 150 24 0 100 -156 210 -432 67 -169 135 -344 150 -388 16 -45 31 -84
34 -86 3 -3 22 16 42 43 35 46 36 50 30 113 -9 102 -53 447 -100 779 l-43 305
36 42 c20 23 91 102 157 175 198 220 235 277 235 363 0 56 -18 65 -97 46z"/>
<path d="M20733 9553 c3 -2864 0 -2685 53 -2958 161 -833 666 -1565 1389
-2010 288 -178 648 -322 976 -389 231 -48 347 -57 787 -63 l412 -6 0 806 0
805 -382 5 c-345 4 -393 6 -479 25 -282 63 -499 177 -695 365 -207 198 -342
431 -411 713 l-27 109 -3 823 -4 822 1001 0 1000 0 0 800 0 800 -1000 0 -1000
0 0 1000 0 1000 -810 0 -811 0 4 -2647z"/>
<path d="M4535 10189 c-701 -61 -1370 -375 -1875 -879 -1114 -1115 -1189
-2888 -172 -4100 119 -143 333 -345 483 -457 445 -333 938 -533 1480 -599 161
-20 516 -22 669 -5 346 40 653 125 960 265 l143 65 -7 -52 c-21 -161 -93 -370
-177 -509 -214 -355 -542 -591 -947 -680 -141 -31 -415 -31 -558 0 -300 65
-514 180 -725 391 -124 125 -214 249 -277 382 -20 44 -40 79 -44 79 -9 0
-1480 -598 -1486 -604 -8 -8 93 -220 164 -345 143 -251 313 -470 532 -683 407
-395 939 -678 1493 -792 354 -73 756 -80 1119 -20 865 143 1637 670 2095 1429
214 355 347 737 412 1185 16 105 17 365 20 3028 l3 2912 -805 0 -805 0 0 -175
c0 -96 -2 -175 -5 -175 -3 0 -42 19 -88 41 -469 237 -1052 345 -1602 298z
m576 -1637 c498 -116 887 -464 1043 -933 60 -180 71 -252 70 -459 0 -153 -4
-203 -23 -290 -60 -281 -182 -502 -390 -711 -206 -205 -430 -328 -719 -391
-141 -31 -415 -31 -558 0 -283 61 -502 175 -700 365 -210 200 -345 437 -411
719 -24 101 -27 133 -28 303 0 163 3 205 23 294 132 587 574 1013 1162 1117
112 20 419 11 531 -14z"/>
<path d="M10855 10189 c-701 -61 -1370 -375 -1875 -879 -1114 -1115 -1189
-2888 -172 -4100 119 -143 333 -345 483 -457 445 -333 938 -533 1480 -599 248
-31 596 -22 859 22 1060 175 1960 920 2338 1934 130 347 185 662 186 1050 0
285 -21 473 -80 720 -231 954 -911 1737 -1828 2105 -434 174 -917 245 -1391
204z m576 -1637 c498 -116 887 -464 1043 -933 60 -180 71 -252 70 -459 0 -153
-4 -203 -23 -290 -60 -281 -182 -502 -390 -711 -206 -205 -430 -328 -719 -391
-141 -31 -415 -31 -558 0 -283 61 -502 175 -700 365 -210 200 -345 437 -411
719 -24 101 -27 133 -28 303 0 163 3 205 23 294 132 587 574 1013 1162 1117
112 20 419 11 531 -14z"/>
<path d="M17175 10189 c-701 -61 -1370 -375 -1875 -879 -1114 -1115 -1189
-2888 -172 -4100 187 -223 471 -467 727 -625 131 -81 393 -210 525 -259 363
-133 675 -188 1060 -189 356 0 623 42 952 149 136 44 375 143 446 184 l32 19
0 -179 0 -180 805 0 805 0 0 3035 0 3035 -805 0 -805 0 0 -175 c0 -96 -2 -175
-5 -175 -3 0 -42 19 -88 41 -469 237 -1052 345 -1602 298z m576 -1637 c498
-116 887 -464 1043 -933 60 -180 71 -252 70 -459 0 -153 -4 -203 -23 -290 -60
-281 -182 -502 -390 -711 -206 -205 -430 -328 -719 -391 -141 -31 -415 -31
-558 0 -283 61 -502 175 -700 365 -210 200 -345 437 -411 719 -24 101 -27 133
-28 303 0 163 3 205 23 294 132 587 574 1013 1162 1117 112 20 419 11 531 -14z"/>
<path d="M22276 3574 c-197 -48 -328 -178 -357 -355 -29 -184 53 -346 215
-423 39 -19 145 -58 236 -86 183 -58 242 -85 282 -127 78 -84 45 -224 -67
-274 -60 -28 -177 -26 -235 4 -57 29 -100 83 -107 136 l-6 41 -165 0 -165 0 7
-57 c4 -35 20 -87 41 -130 84 -171 266 -263 519 -263 180 0 308 45 408 143 92
91 135 209 125 348 -7 99 -40 170 -112 238 -68 64 -150 103 -350 166 -215 68
-271 100 -301 171 -20 47 -17 91 7 142 37 76 152 112 263 81 52 -14 123 -82
138 -130 l11 -39 165 0 165 0 -7 53 c-16 120 -107 247 -223 310 -117 63 -341
87 -487 51z"/>
<path d="M9820 3568 c1 -2 92 -343 203 -758 l202 -755 181 -3 180 -2 144 522
c79 288 146 530 151 538 5 10 10 2 18 -25 12 -49 248 -945 262 -997 l10 -38
179 0 179 0 15 53 c28 98 395 1412 401 1440 l7 27 -163 0 -164 0 -129 -563
c-71 -309 -132 -571 -136 -581 -4 -13 -59 190 -151 562 l-144 582 -171 0 -171
0 -148 -567 c-139 -532 -163 -620 -164 -600 -1 4 -59 266 -131 580 -71 315
-130 576 -130 580 0 4 -74 7 -165 7 -91 0 -165 -1 -165 -2z"/>
<path d="M12335 2819 c-148 -414 -271 -756 -273 -760 -2 -5 68 -9 156 -9 l160
0 16 43 c9 23 31 87 50 142 l33 100 306 3 305 2 47 -141 c26 -77 52 -142 59
-145 7 -2 79 -3 162 -2 l151 3 -272 755 -271 755 -179 3 -180 2 -270 -751z
m559 81 c58 -168 106 -308 106 -312 0 -5 -97 -8 -215 -8 -173 0 -215 3 -215
13 0 10 153 461 205 606 3 8 7 12 10 10 2 -3 51 -142 109 -309z"/>
<path d="M13710 2810 l0 -760 155 0 155 0 2 517 3 517 342 -517 342 -517 151
0 150 0 0 760 0 760 -150 0 -150 0 0 -517 c0 -392 -3 -514 -12 -505 -6 6 -160
237 -343 514 l-332 503 -156 3 -157 3 0 -761z"/>
<path d="M15310 2810 l0 -762 348 5 c316 4 355 6 432 26 277 71 459 249 531
516 30 112 30 317 1 427 -72 265 -254 446 -527 520 -73 20 -109 22 -432 26
l-353 4 0 -762z m691 484 c86 -26 149 -63 205 -120 89 -90 127 -201 128 -364
0 -162 -41 -278 -131 -368 -97 -97 -212 -132 -440 -132 l-143 0 0 507 0 506
164 -7 c102 -4 184 -12 217 -22z"/>
<path d="M16880 2810 l0 -760 440 0 440 0 0 125 0 125 -290 0 -290 0 0 200 0
200 255 0 255 0 0 120 0 120 -255 0 -255 0 0 195 0 195 290 0 290 0 0 120 0
120 -440 0 -440 0 0 -760z"/>
<path d="M18040 2810 l0 -760 150 0 150 0 0 295 0 295 73 0 73 0 158 -279 c86
-153 163 -286 169 -295 11 -14 35 -16 184 -14 l172 3 -179 304 c-99 166 -180
304 -180 306 0 1 26 12 58 24 127 46 218 140 262 272 18 53 21 81 18 164 -3
88 -8 109 -37 172 -61 131 -186 224 -347 258 -52 11 -148 15 -396 15 l-328 0
0 -760z m656 495 c88 -26 144 -105 144 -204 0 -74 -19 -122 -64 -167 -53 -53
-102 -64 -291 -64 l-145 0 0 225 0 225 153 0 c106 0 169 -5 203 -15z"/>
<path d="M19430 2810 l0 -760 405 0 405 0 0 120 0 120 -252 2 -253 3 -3 638
-2 637 -150 0 -150 0 0 -760z"/>
<path d="M20430 3048 c0 -433 3 -534 15 -587 49 -207 201 -355 415 -405 82
-20 254 -20 343 -1 143 30 286 125 357 235 18 28 45 81 59 118 l26 67 3 548 3
547 -151 0 -150 0 0 -484 c0 -283 -4 -506 -10 -537 -14 -76 -49 -139 -98 -176
-57 -43 -110 -57 -212 -57 -138 0 -221 49 -272 159 -23 50 -23 51 -26 573 l-3
522 -149 0 -150 0 0 -522z"/>
<path d="M23200 3450 l0 -120 200 0 200 0 0 -640 0 -640 150 0 150 0 2 638 3
637 203 3 202 2 0 120 0 120 -555 0 -555 0 0 -120z"/>
<path d="M8680 3220 l0 -290 -295 0 -295 0 0 -150 0 -150 295 0 295 0 0 -295
0 -295 145 0 145 0 0 295 0 295 295 0 295 0 0 150 0 150 -295 0 -295 0 0 290
0 290 -145 0 -145 0 0 -290z"/>
</g>
</svg>
