<svg width="2059" height="1000" viewBox="0 0 2059 1000" fill="none" xmlns="http://www.w3.org/2000/svg">
<path d="M800.294 809.062L758.941 957.087H723.949L696.168 851.688L667.114 957.087L632.025 957.087L592.466 809.062H624.276L650.361 924.004L680.475 809.062H713.558L741.975 923.368L768.272 809.062H800.294Z" fill="black"/>
<path d="M910.446 928.882H851.491L841.736 957.087H810.561L863.791 808.85H898.358L951.588 957.087H920.202L910.446 928.882ZM902.388 905.13L880.969 843.205L859.55 905.13H902.388Z" fill="black"/>
<path d="M1098.09 957.087H1068.4L1001.17 855.505V957.087H971.484V808.85H1001.17L1068.4 910.644V808.85H1098.09V957.087Z" fill="black"/>
<path d="M1179.18 809.062C1194.73 809.062 1208.37 812.102 1220.1 818.181C1231.98 824.26 1241.1 832.955 1247.46 844.266C1253.97 855.435 1257.22 868.442 1257.22 883.287C1257.22 898.131 1253.97 911.138 1247.46 922.307C1241.1 933.335 1231.98 941.889 1220.1 947.968C1208.37 954.047 1194.73 957.087 1179.18 957.087H1127.43V809.062H1179.18ZM1178.12 931.851C1193.67 931.851 1205.68 927.609 1214.17 919.126C1222.65 910.644 1226.89 898.697 1226.89 883.287C1226.89 867.876 1222.65 855.859 1214.17 847.235C1205.68 838.469 1193.67 834.086 1178.12 834.086H1157.12V931.851H1178.12Z" fill="black"/>
<path d="M1309.13 833.026V870.138H1358.97V893.678H1309.13V932.911H1365.33V957.087H1279.44V808.85H1365.33V833.026H1309.13Z" fill="black"/>
<path d="M1468.66 957.087L1436 899.404H1422V957.087H1392.31V809.062H1447.87C1459.32 809.062 1469.08 811.112 1477.14 815.212C1485.2 819.171 1491.21 824.614 1495.16 831.542C1499.26 838.328 1501.31 845.962 1501.31 854.445C1501.31 864.2 1498.49 873.037 1492.83 880.954C1487.18 888.73 1478.76 894.102 1467.6 897.071L1503.01 957.087H1468.66ZM1422 877.137H1446.81C1454.87 877.137 1460.88 875.228 1464.84 871.411C1468.8 867.452 1470.78 862.009 1470.78 855.081C1470.78 848.295 1468.8 843.064 1464.84 839.388C1460.88 835.571 1454.87 833.662 1446.81 833.662H1422V877.137Z" fill="black"/>
<path d="M1557.86 933.547H1606.63V957.087H1528.17V809.062H1557.86V933.547Z" fill="black"/>
<path d="M1654.77 809.062V900.676C1654.77 910.714 1657.39 918.419 1662.62 923.792C1667.85 929.023 1675.2 931.639 1684.67 931.639C1694.29 931.639 1701.71 929.023 1706.94 923.792C1712.17 918.419 1714.79 910.714 1714.79 900.676V809.062H1744.69V900.464C1744.69 913.047 1741.93 923.721 1736.42 932.487C1731.04 941.111 1723.76 947.614 1714.57 951.997C1705.53 956.38 1695.42 958.571 1684.25 958.571C1673.22 958.571 1663.18 956.38 1654.13 951.997C1645.23 947.614 1638.16 941.111 1632.93 932.487C1627.7 923.721 1625.08 913.047 1625.08 900.464V809.062H1654.77Z" fill="black"/>
<path d="M1824.48 958.571C1814.16 958.571 1804.83 956.804 1796.49 953.27C1788.29 949.735 1781.79 944.645 1776.98 938.001C1772.17 931.356 1769.7 923.509 1769.56 914.461H1801.37C1801.79 920.54 1803.91 925.347 1807.73 928.882C1811.69 932.416 1817.06 934.183 1823.85 934.183C1830.77 934.183 1836.22 932.557 1840.18 929.306C1844.13 925.913 1846.11 921.53 1846.11 916.157C1846.11 911.775 1844.77 908.169 1842.08 905.342C1839.4 902.514 1836.01 900.323 1831.91 898.768C1827.95 897.071 1822.43 895.233 1815.36 893.254C1805.75 890.426 1797.9 887.669 1791.82 884.983C1785.89 882.156 1780.73 877.985 1776.34 872.471C1772.1 866.816 1769.98 859.323 1769.98 849.992C1769.98 841.226 1772.17 833.592 1776.55 827.088C1780.94 820.585 1787.09 815.636 1795 812.243C1802.92 808.709 1811.97 806.941 1822.15 806.941C1837.42 806.941 1849.79 810.688 1859.26 818.181C1868.88 825.533 1874.18 835.854 1875.17 849.143H1842.51C1842.23 844.054 1840.03 839.883 1835.93 836.631C1831.98 833.238 1826.67 831.542 1820.03 831.542C1814.23 831.542 1809.57 833.026 1806.03 835.995C1802.64 838.964 1800.94 843.276 1800.94 848.931C1800.94 852.89 1802.22 856.212 1804.76 858.899C1807.45 861.443 1810.7 863.564 1814.52 865.261C1818.47 866.816 1823.99 868.654 1831.06 870.774C1840.67 873.602 1848.52 876.43 1854.6 879.257C1860.68 882.085 1865.91 886.326 1870.29 891.981C1874.67 897.637 1876.86 905.059 1876.86 914.249C1876.86 922.166 1874.81 929.518 1870.71 936.304C1866.61 943.09 1860.61 948.533 1852.69 952.633C1844.77 956.592 1835.37 958.571 1824.48 958.571Z" fill="black"/>
<path d="M2003.34 809.062V833.026H1963.89V957.087H1934.2V833.026H1894.76V809.062H2003.34Z" fill="black"/>
<path fill-rule="evenodd" clip-rule="evenodd" d="M2046.73 21.1853C2049.33 11.0207 2046.84 11.0375 2046.84 11.0375C2046.84 11.0375 2046.82 8.54488 2036.7 11.2868C2031.97 12.567 2022.01 21.1791 2012.74 29.9985C2007.16 35.0139 2000.39 41.2864 1992.49 48.9236C1987.66 48.2815 1979.64 47.2205 1970.14 45.9903L1958.53 44.4969C1952.8 43.7682 1946.83 43.0173 1940.9 42.2895L1929.22 40.8714C1910.11 38.5998 1893.74 36.8853 1891.01 37.3154C1891.01 37.3154 1884.62 41.276 1883.21 43.0663C1881.8 44.8566 1883.41 45.7348 1885.9 45.7179C1887.3 45.7088 1907.35 53.2646 1924.96 60.0129L1928.81 61.4888C1930.72 62.2216 1932.58 62.9359 1934.36 63.623L1938.2 65.1063C1939.89 65.758 1941.47 66.3678 1942.91 66.9286L1946.75 68.4148C1949.63 69.5332 1951.47 70.2481 1951.76 70.3605C1952.14 70.5099 1952.97 70.9776 1954.05 71.6172L1960.19 75.4312C1961.6 76.3285 1962.89 77.1621 1963.81 77.7548C1955.77 86.1299 1947.07 95.4216 1937.75 105.69C1937.75 105.69 1930.18 114.459 1922.46 124.896L1883.5 120.076C1883.5 120.076 1871.59 123.185 1873.93 126.551C1873.93 126.551 1892.14 134.256 1894.64 135.664C1896.53 136.724 1906.03 140.871 1910.59 142.846C1910.15 143.643 1909.74 144.426 1909.35 145.192C1907.21 148.578 1905.58 151.4 1905.58 151.4L1906.14 151.945L1907.9 153.681L1908.45 154.226C1908.45 154.226 1911.25 152.553 1914.6 150.369C1915.36 149.974 1916.14 149.548 1916.93 149.098C1918.97 153.627 1923.25 163.071 1924.34 164.944C1925.78 167.427 1933.74 185.528 1933.74 185.528C1937.13 187.818 1940.08 175.872 1940.08 175.872L1934.72 136.987C1945.04 129.121 1953.71 121.429 1953.71 121.429C1963.85 111.959 1973.02 103.134 1981.28 94.9811C1981.88 95.8884 1982.73 97.1726 1983.65 98.5691L1987.55 104.655C1988.21 105.723 1988.68 106.553 1988.84 106.934C1988.96 107.219 1989.7 109.043 1990.86 111.913L1992.4 115.73C1992.97 117.169 1993.61 118.74 1994.28 120.418L1995.82 124.238C1996.53 126.01 1997.27 127.857 1998.03 129.755L1999.56 133.582C2006.55 151.104 2014.38 171.044 2014.39 172.444C2014.41 174.936 2015.31 176.531 2017.08 175.095C2018.85 173.658 2022.72 167.223 2022.72 167.223C2023.12 164.482 2021.17 148.139 2018.63 129.064L2017.06 117.398C2016.25 111.488 2015.41 105.527 2014.6 99.8089L2012.95 88.2184C2011.59 78.7374 2010.42 70.7284 2009.71 65.912C2017.24 57.9057 2023.41 51.0486 2028.35 45.3996C2037.04 36.0068 2045.51 25.9312 2046.72 21.185L2046.73 21.1853ZM1951.72 767.763C1803.82 767.763 1683.93 647.869 1683.93 499.971V55.7101H1826.87V232.179H2003.34V373.355H1826.87V500.412C1826.87 569.61 1882.96 625.706 1952.16 625.706H2003.34V767.763H1951.72ZM836.435 767.763C984.332 767.763 1104.23 647.868 1104.23 499.971C1104.23 352.073 984.332 232.179 836.435 232.179C688.537 232.179 568.643 352.073 568.643 499.971C568.643 647.868 688.537 767.763 836.435 767.763ZM836.876 625.705C906.074 625.705 962.169 569.609 962.169 500.411C962.169 431.214 906.074 375.118 836.876 375.118C767.679 375.118 711.583 431.214 711.583 500.411C711.583 569.609 767.679 625.705 836.876 625.705ZM1661.87 232.179H1519.81V263.472C1482.32 243.498 1439.52 232.179 1394.08 232.179C1246.18 232.179 1126.29 352.073 1126.29 499.971C1126.29 647.868 1246.18 767.763 1394.08 767.763C1439.52 767.763 1482.32 756.444 1519.81 736.47V767.763H1661.87V500.288L1661.87 499.971L1661.87 499.654V232.179ZM1519.81 500.765C1519.62 569.8 1463.6 625.705 1394.52 625.705C1325.32 625.705 1269.23 569.609 1269.23 500.412C1269.23 431.214 1325.32 375.118 1394.52 375.118C1463.6 375.118 1519.62 431.023 1519.81 500.058V500.765ZM403.84 736.835C366.514 756.581 323.959 767.763 278.792 767.763C130.895 767.763 11 647.868 11 499.971C11 352.073 130.895 232.179 278.792 232.179C324.236 232.179 367.036 243.498 404.526 263.472V232.179H546.584V499.971V726.293H546.566C544.911 872.767 425.658 990.996 278.791 990.996C166.807 990.996 70.8767 922.259 30.8916 824.674L163.136 770.851C181.778 816.651 226.735 848.939 279.232 848.939C343.975 848.939 397.249 799.833 403.84 736.835ZM404.526 500.412C404.526 569.609 348.431 625.705 279.233 625.705C210.036 625.705 153.94 569.609 153.94 500.412C153.94 431.215 210.036 375.119 279.233 375.119C348.431 375.119 404.526 431.215 404.526 500.412Z" fill="#004C8C"/>
</svg>
